<?xml version="1.0" encoding="UTF-8"?>
<svg version="1.1" xmlns="http://www.w3.org/2000/svg" width="288" height="288">
<path d="M0 0 C95.04 0 190.08 0 288 0 C288 95.04 288 190.08 288 288 C192.96 288 97.92 288 0 288 C0 192.96 0 97.92 0 0 Z " fill="#FEFEFE" transform="translate(0,0)"/>
<path d="M0 0 C0.73569214 -0.00832352 1.47138428 -0.01664703 2.22937012 -0.02522278 C4.65402578 -0.04925413 7.07841181 -0.05808789 9.50317383 -0.06469727 C11.19843116 -0.07367128 12.89368771 -0.08279326 14.58894348 -0.09205627 C18.14216023 -0.10853192 21.69528295 -0.11624335 25.24853516 -0.11914062 C29.78000381 -0.12451231 34.31057591 -0.16214753 38.84179211 -0.20788479 C42.34476361 -0.23777809 45.84752282 -0.24486689 49.35061073 -0.24586678 C51.01983035 -0.25004747 52.68905188 -0.26239452 54.35814476 -0.28338432 C63.54751775 -0.38971543 71.79701253 -0.41553726 79.52270508 5.30639648 C81.82739258 7.90014648 81.82739258 7.90014648 83.39770508 10.80639648 C84.02805664 11.93303711 84.6584082 13.05967773 85.30786133 14.22045898 C85.82050537 15.1742041 85.82050537 15.1742041 86.34350586 16.1472168 C87.71145615 18.65201024 89.14265781 21.11497706 90.58129883 23.57983398 C103.94981546 46.57063427 103.94981546 46.57063427 102.52270508 57.30639648 C100.50154284 61.75295341 97.91276142 64.36767422 93.51879883 66.60717773 C89.89718782 67.87580468 86.23543105 68.36248991 82.52270508 67.30639648 C78.38056721 63.79544153 75.47185589 59.62071369 72.52270508 55.11889648 C72.08482666 54.45978271 71.64694824 53.80066895 71.19580078 53.12158203 C68.75604028 49.39122688 66.60554096 45.6622797 64.71020508 41.61889648 C62.9169852 37.81777548 61.23764239 35.49725695 57.52270508 33.30639648 C54.58870293 32.39462105 51.89758665 32.16211494 48.83349609 32.11352539 C47.44669395 32.089431 47.44669395 32.089431 46.03187561 32.06484985 C41.82627299 32.02022139 37.62082298 31.97937155 33.41503906 31.95629883 C31.1968336 31.93970986 28.97868222 31.91238155 26.76074219 31.87426758 C23.55741747 31.81954243 20.35534029 31.79763517 17.15161133 31.78295898 C16.16189835 31.76028961 15.17218536 31.73762024 14.15248108 31.71426392 C8.37737353 31.72493822 8.37737353 31.72493822 3.49121094 34.65942383 C0.58199571 38.57133149 -1.99497134 42.1739846 -3.91479492 46.68139648 C-5.68693454 50.79276039 -7.69728358 54.77403884 -10.47729492 58.30639648 C-11.13729492 58.30639648 -11.79729492 58.30639648 -12.47729492 58.30639648 C-12.55979492 58.96639648 -12.64229492 59.62639648 -12.72729492 60.30639648 C-13.93947256 65.15510705 -16.47581069 69.39880747 -18.78979492 73.80639648 C-21.21428731 82.62273245 -15.67489634 90.86436078 -11.47729492 98.30639648 C-10.62264648 99.44334961 -10.62264648 99.44334961 -9.75073242 100.60327148 C-8.47729492 102.30639648 -8.47729492 102.30639648 -8.47729492 104.30639648 C-7.81729492 104.30639648 -7.15729492 104.30639648 -6.47729492 104.30639648 C-6.09057617 105.10303711 -5.70385742 105.89967773 -5.30541992 106.72045898 C-1.38198405 116.25560438 -1.38198405 116.25560438 5.52270508 123.30639648 C5.52270508 123.96639648 5.52270508 124.62639648 5.52270508 125.30639648 C10.47270508 124.31639648 10.47270508 124.31639648 15.52270508 123.30639648 C16.01770508 121.32639648 16.01770508 121.32639648 16.52270508 119.30639648 C23.61303599 113.79169467 30.72220912 113.24597636 39.52270508 114.30639648 C44.52450093 116.2068313 48.86564848 118.63408154 52.64379883 122.44702148 C54.47936682 124.53780289 54.47936682 124.53780289 57.52270508 125.30639648 C62.59632579 133.24771587 62.49017252 142.40484512 61.01489258 151.40405273 C59.68878517 157.06668377 58.29529155 160.84627129 53.52270508 164.30639648 C52.53270508 164.30639648 51.54270508 164.30639648 50.52270508 164.30639648 C50.52270508 164.96639648 50.52270508 165.62639648 50.52270508 166.30639648 C42.09612869 171.21168004 34.23007899 172.65152913 24.52270508 171.30639648 C21.72973633 169.82202148 21.72973633 169.82202148 19.52270508 168.30639648 C18.71833008 168.05889648 17.91395508 167.81139648 17.08520508 167.55639648 C13.32000856 165.71971525 10.87835441 162.7386828 8.52270508 159.30639648 C8.52270508 158.64639648 8.52270508 157.98639648 8.52270508 157.30639648 C7.28133789 157.34120117 6.0399707 157.37600586 4.76098633 157.41186523 C3.11907282 157.44001232 1.47714462 157.4673115 -0.16479492 157.49389648 C-0.98141602 157.5190332 -1.79803711 157.54416992 -2.6394043 157.57006836 C-3.43540039 157.57973633 -4.23139648 157.5894043 -5.05151367 157.59936523 C-6.14338989 157.62293091 -6.14338989 157.62293091 -7.25732422 157.64697266 C-11.33279664 157.02173522 -13.79591965 155.23237782 -16.21557617 151.9440918 C-16.99481445 150.55335449 -16.99481445 150.55335449 -17.78979492 149.13452148 C-18.3836499 148.0893335 -18.97750488 147.04414551 -19.58935547 145.96728516 C-20.21237549 144.84169189 -20.83539551 143.71609863 -21.47729492 142.55639648 C-22.13996212 141.38037274 -22.80379728 140.20500641 -23.46875 139.03027344 C-24.82691647 136.62624814 -26.17796899 134.21844793 -27.52270508 131.80688477 C-29.8502439 127.63339153 -32.20758202 123.4769451 -34.56420898 119.31982422 C-36.15254788 116.51551935 -37.73532497 113.70813616 -39.31713867 110.90014648 C-43.1097604 104.17562305 -46.94441783 97.47524272 -50.78466797 90.77783203 C-51.49103394 89.54480347 -51.49103394 89.54480347 -52.21166992 88.28686523 C-52.62642578 87.56394287 -53.04118164 86.84102051 -53.46850586 86.09619141 C-55.91338942 81.75847568 -56.15137092 78.24678819 -55.47729492 73.30639648 C-54.13730478 69.73043359 -52.28534128 66.5300753 -50.35229492 63.24389648 C-49.55009521 61.82911011 -49.55009521 61.82911011 -48.73168945 60.38574219 C-47.00063886 57.34703649 -45.24120279 54.32613007 -43.47729492 51.30639648 C-42.28923095 49.24943046 -41.10173139 47.19213833 -39.91479492 45.13452148 C-37.00148196 40.10076679 -34.05529812 35.08706931 -31.10083008 30.07739258 C-29.58675418 27.49321792 -28.09551609 24.89762783 -26.61401367 22.29467773 C-13.88289203 0.01344501 -13.88289203 0.01344501 0 0 Z " fill="#E52C31" transform="translate(114.477294921875,34.693603515625)"/>
<path d="M0 0 C2.25902285 1.37589114 2.25902285 1.37589114 4.92578125 2.265625 C8.31196957 3.7541843 8.931211 5.9475166 10.25390625 9.2890625 C10.25390625 9.9490625 10.25390625 10.6090625 10.25390625 11.2890625 C11.24390625 11.24265625 12.23390625 11.19625 13.25390625 11.1484375 C27.51405011 10.66984858 27.51405011 10.66984858 33.25390625 15.2890625 C38.57998691 21.21754882 42.51421502 27.88913984 46.31640625 34.8515625 C47.44369639 36.88240834 48.5726602 38.91232587 49.703125 40.94140625 C50.28239746 41.98280762 50.86166992 43.02420898 51.45849609 44.09716797 C54.44671353 49.40964482 57.54198693 54.65856064 60.62890625 59.9140625 C62.34019754 62.85255598 64.04912493 65.79241388 65.7578125 68.73242188 C67.0521937 70.94436051 68.36723401 73.14178862 69.69140625 75.3359375 C70.33078125 76.43421875 70.97015625 77.5325 71.62890625 78.6640625 C72.15226563 79.53804688 72.675625 80.41203125 73.21484375 81.3125 C75.06415275 86.61014458 75.27221715 91.57969194 73.27978516 96.88085938 C71.91556578 99.61032348 70.43557463 102.22719584 68.87890625 104.8515625 C68.33161865 105.81263916 67.78433105 106.77371582 67.22045898 107.76391602 C65.58707592 110.61919389 63.92540243 113.45596607 62.25390625 116.2890625 C61.39809546 117.75500871 60.54259509 119.22113621 59.6875 120.6875 C58.50686866 122.70468333 57.32134318 124.71830164 56.12231445 126.72460938 C53.6688802 130.8343191 51.30176453 134.98154146 48.98828125 139.171875 C48.13737915 140.70630249 48.13737915 140.70630249 47.26928711 142.27172852 C46.16565321 144.26776315 45.06961596 146.26802457 43.98266602 148.27319336 C35.36063069 163.82430345 35.36063069 163.82430345 26.9528656 166.71772766 C20.53981977 168.07528664 13.83961014 167.71568308 7.3125 167.6875 C5.65918347 167.6895239 4.00586781 167.69243796 2.35255432 167.69619751 C-1.10123246 167.70060477 -4.55478545 167.6942408 -8.00854492 167.68017578 C-12.42232366 167.66307127 -16.83555553 167.67294305 -21.24931431 167.69089317 C-24.65952127 167.70176292 -28.06959976 167.69827031 -31.47981071 167.6905098 C-33.10681156 167.6885173 -34.73382429 167.69093347 -36.36081123 167.69794846 C-38.63872059 167.70561741 -40.91575861 167.69388456 -43.19360352 167.67724609 C-44.48629654 167.67485931 -45.77898956 167.67247253 -47.1108551 167.67001343 C-52.37793337 167.11805562 -57.32585439 165.55428507 -60.78125 161.296875 C-64.49046913 156.60779254 -67.31469917 151.39233803 -70.18359375 146.1640625 C-71.03183716 144.62927246 -71.03183716 144.62927246 -71.8972168 143.06347656 C-73.01245596 141.04403703 -74.12525412 139.0232471 -75.23535156 137.00097656 C-76.49886925 134.73285205 -77.79866131 132.50093975 -79.14453125 130.28125 C-82.56431924 124.4885479 -84.90188864 119.65186038 -84.44140625 112.8046875 C-83.00404785 107.6043571 -79.34506258 103.87994645 -74.8125 101.10546875 C-70.83496319 99.53400336 -66.926135 99.5623784 -62.74609375 100.2890625 C-57.76767065 102.88931694 -55.68892117 106.1809295 -53.60571289 111.3112793 C-52.00177542 115.00156543 -49.95562894 118.44070312 -47.93359375 121.9140625 C-47.52044922 122.65140625 -47.10730469 123.38875 -46.68164062 124.1484375 C-46.26333984 124.86773437 -45.84503906 125.58703125 -45.4140625 126.328125 C-45.04563232 126.96959473 -44.67720215 127.61106445 -44.29760742 128.27197266 C-41.40318435 132.03495037 -39.06548826 134.84492715 -34.31361389 135.75485229 C-31.33056894 135.95073603 -28.3878072 135.98202169 -25.3984375 135.953125 C-24.30898331 135.95790863 -23.21952911 135.96269226 -22.09706116 135.96762085 C-19.79996288 135.97101526 -17.502816 135.9618452 -15.20581055 135.94091797 C-11.69145064 135.91412241 -8.18027722 135.94069724 -4.66601562 135.97265625 C-2.43098254 135.96935258 -0.19595144 135.96294724 2.0390625 135.953125 C3.08812271 135.96324615 4.13718292 135.97336731 5.21803284 135.98379517 C11.22872255 135.90007348 11.22872255 135.90007348 16.36108398 132.95068359 C18.13302993 130.45903459 19.35430736 128.07489427 20.453125 125.2265625 C21.67986949 122.25843924 23.28867481 119.52883441 24.87109375 116.73828125 C26.34541014 114.12699206 27.76905269 111.49148049 29.19140625 108.8515625 C31.25449543 105.0772288 33.34435493 101.32166551 35.50390625 97.6015625 C35.9834375 96.77269531 36.46296875 95.94382812 36.95703125 95.08984375 C37.385 94.49558594 37.81296875 93.90132813 38.25390625 93.2890625 C38.91390625 93.2890625 39.57390625 93.2890625 40.25390625 93.2890625 C39.94263109 91.70548791 39.62983336 90.12221257 39.31640625 88.5390625 C39.14238281 87.65734375 38.96835938 86.775625 38.7890625 85.8671875 C38.52416016 84.59101563 38.52416016 84.59101563 38.25390625 83.2890625 C38.12886719 82.54140625 38.00382812 81.79375 37.875 81.0234375 C37.67003906 80.45109375 37.46507812 79.87875 37.25390625 79.2890625 C35.76890625 78.7940625 35.76890625 78.7940625 34.25390625 78.2890625 C33.0078125 75.92578125 33.0078125 75.92578125 31.81640625 72.9765625 C30.1541625 68.86758372 28.53695976 66.27485764 25.25390625 63.2890625 C22.84888824 60.42154103 21.59715261 57.76570014 20.25390625 54.2890625 C17.57561242 47.6535655 17.57561242 47.6535655 12.25390625 43.2890625 C9.6474212 43.12696031 9.6474212 43.12696031 7.25390625 44.2890625 C6.84140625 45.0521875 6.42890625 45.8153125 6.00390625 46.6015625 C3.28697741 50.77398893 0.01171861 52.07845635 -4.74609375 53.2890625 C-12.90987028 54.09205691 -22.41843815 54.51559423 -29.74609375 50.2890625 C-36.52669422 44.09263684 -41.43418215 38.36045803 -41.9140625 29.01953125 C-41.97485609 17.99157324 -41.54505504 11.1095947 -34.20703125 2.5 C-24.86011948 -5.89738423 -10.46653307 -6.05677548 0 0 Z " fill="#5875FC" transform="translate(153.74609375,88.7109375)"/>
<path d="M0 0 C2.25902285 1.37589114 2.25902285 1.37589114 4.92578125 2.265625 C8.31196957 3.7541843 8.931211 5.9475166 10.25390625 9.2890625 C10.25390625 9.9490625 10.25390625 10.6090625 10.25390625 11.2890625 C11.24390625 11.24265625 12.23390625 11.19625 13.25390625 11.1484375 C27.51405011 10.66984858 27.51405011 10.66984858 33.25390625 15.2890625 C38.57998691 21.21754882 42.51421502 27.88913984 46.31640625 34.8515625 C47.44369639 36.88240834 48.5726602 38.91232587 49.703125 40.94140625 C50.28239746 41.98280762 50.86166992 43.02420898 51.45849609 44.09716797 C54.44671353 49.40964482 57.54198693 54.65856064 60.62890625 59.9140625 C62.34019754 62.85255598 64.04912493 65.79241388 65.7578125 68.73242188 C67.0521937 70.94436051 68.36723401 73.14178862 69.69140625 75.3359375 C73.37701845 81.66686813 75.89865345 86.89397775 74.25390625 94.2890625 C73.14212428 97.18915759 71.84738233 99.60007161 70.25390625 102.2890625 C69.92390625 102.2890625 69.59390625 102.2890625 69.25390625 102.2890625 C69.228125 101.7321875 69.20234375 101.1753125 69.17578125 100.6015625 C68.79131611 95.42875878 67.76326352 91.62348683 65.19140625 87.11328125 C64.25390625 85.2890625 64.25390625 85.2890625 63.81640625 83.12109375 C63.63078125 82.51652344 63.44515625 81.91195312 63.25390625 81.2890625 C61.76890625 80.7940625 61.76890625 80.7940625 60.25390625 80.2890625 C58.09745599 76.91960896 56.43574769 73.72360623 54.890625 70.03125 C52.91180526 65.3550586 50.42519975 60.9710887 47.95117188 56.54296875 C45.25390625 51.60882421 45.25390625 51.60882421 45.25390625 48.2890625 C44.59390625 48.2890625 43.93390625 48.2890625 43.25390625 48.2890625 C42.26390625 45.8140625 42.26390625 45.8140625 41.25390625 43.2890625 C40.59390625 43.2890625 39.93390625 43.2890625 39.25390625 43.2890625 C36.25390625 37.5390625 36.25390625 37.5390625 36.25390625 35.2890625 C35.59390625 35.2890625 34.93390625 35.2890625 34.25390625 35.2890625 C33.89039063 34.38414063 33.89039063 34.38414063 33.51953125 33.4609375 C30.33557082 25.76746306 30.33557082 25.76746306 23.6328125 21.21484375 C19.07346861 19.96563623 14.6040704 19.93246804 9.91210938 19.8984375 C4.71943478 19.72258022 4.71943478 19.72258022 2.265625 17.4375 C1.25390625 15.2890625 1.25390625 15.2890625 1.25390625 12.2890625 C0.53203125 12.0209375 -0.18984375 11.7528125 -0.93359375 11.4765625 C-3.74609375 10.2890625 -3.74609375 10.2890625 -6.30859375 8.7265625 C-8.52755853 7.41794225 -10.23684532 6.75373814 -12.74609375 6.2890625 C-12.74609375 5.6290625 -12.74609375 4.9690625 -12.74609375 4.2890625 C-22.48148067 4.5696212 -30.06023229 5.94613177 -38.74609375 10.2890625 C-36.62038089 5.2646503 -34.09416983 1.45062973 -29.171875 -0.984375 C-18.83928093 -4.79325281 -9.7157135 -5.62229106 0 0 Z " fill="#73757D" transform="translate(153.74609375,88.7109375)"/>
<path d="M0 0 C4.98110796 2.58279672 7.06106227 5.9014462 9.14038086 11.0222168 C10.74431833 14.71250293 12.79046481 18.15164062 14.8125 21.625 C15.22564453 22.36234375 15.63878906 23.0996875 16.06445312 23.859375 C16.48275391 24.57867187 16.90105469 25.29796875 17.33203125 26.0390625 C17.70046143 26.68053223 18.0688916 27.32200195 18.44848633 27.98291016 C21.38691727 31.80310157 23.65667803 34.59649123 28.50563049 35.43145752 C31.59687362 35.578783 34.64829647 35.56189607 37.7421875 35.48828125 C38.86569611 35.48120651 39.98920471 35.47413177 41.14675903 35.46684265 C44.72352604 35.43892807 48.29870876 35.37619067 51.875 35.3125 C54.30466484 35.28741353 56.7343543 35.26460098 59.1640625 35.24414062 C65.10991253 35.18911092 71.05484306 35.1055124 77 35 C77 35.66 77 36.32 77 37 C76.34 37 75.68 37 75 37 C74.87625 37.556875 74.7525 38.11375 74.625 38.6875 C72.79120879 45.47252747 72.79120879 45.47252747 69 48 C66.70549011 48.27415466 66.70549011 48.27415466 63.98120117 48.30639648 C62.95971481 48.32238388 61.93822845 48.33837128 60.88578796 48.35484314 C59.78265762 48.36020584 58.67952728 48.36556854 57.54296875 48.37109375 C55.83938957 48.38463646 55.83938957 48.38463646 54.10139465 48.39845276 C51.69644818 48.41297053 49.29146207 48.42184577 46.88647461 48.42553711 C43.21204753 48.43742061 39.53930627 48.4865838 35.86523438 48.53710938 C33.52865403 48.54657489 31.19206337 48.55380931 28.85546875 48.55859375 C27.7584111 48.57812607 26.66135345 48.59765839 25.53105164 48.61778259 C17.00935476 48.56754454 17.00935476 48.56754454 13.39575195 45.63696289 C8.45040199 40.19370141 6.04199521 34.96134731 4 28 C3.34 28 2.68 28 2 28 C1.59007813 27.07316406 1.18015625 26.14632812 0.7578125 25.19140625 C0.21898438 23.99386719 -0.31984375 22.79632813 -0.875 21.5625 C-1.40867187 20.36753906 -1.94234375 19.17257813 -2.4921875 17.94140625 C-3.67727235 14.91472369 -3.67727235 14.91472369 -6 14 C-6 13.34 -6 12.68 -6 12 C-12.93 11.505 -12.93 11.505 -20 11 C-16.31971345 1.79928361 -9.72862874 -1.51463681 0 0 Z " fill="#76777D" transform="translate(91,189)"/>
<path d="M0 0 C2.80856951 0.00319519 5.61611794 -0.02049823 8.42456055 -0.0456543 C10.22208527 -0.04792449 12.0196128 -0.04863209 13.81713867 -0.04760742 C14.65051254 -0.05681717 15.48388641 -0.06602692 16.34251404 -0.07551575 C21.01536057 -0.03828323 24.03753678 0.31993701 27.85229492 3.31567383 C30.97259973 7.16969372 33.21257038 11.64876552 34.85229492 16.31567383 C35.40916992 17.70786133 35.40916992 17.70786133 35.97729492 19.12817383 C36.26604492 19.85004883 36.55479492 20.57192383 36.85229492 21.31567383 C37.51229492 21.31567383 38.17229492 21.31567383 38.85229492 21.31567383 C39.83392914 23.25192481 40.81251946 25.18971921 41.78979492 27.12817383 C42.33506836 28.20711914 42.8803418 29.28606445 43.44213867 30.39770508 C44.85229492 33.31567383 44.85229492 33.31567383 45.85229492 36.31567383 C50.52430697 37.52135436 55.06725784 37.40949808 59.85229492 37.31567383 C59.62810553 41.23898816 58.892774 42.27695471 55.97729492 45.06567383 C52.38650714 47.65104103 49.80818718 48.4985182 45.47729492 48.69067383 C44.72706055 48.7396582 43.97682617 48.78864258 43.20385742 48.83911133 C37.36569554 47.53958692 33.95540754 40.86653167 30.85229492 36.12817383 C30.4151416 35.46833496 29.97798828 34.80849609 29.52758789 34.12866211 C26.62311994 29.67818023 24.14225838 25.14731606 21.86401367 20.34301758 C20.24143092 17.09158728 18.61562446 13.90586363 15.03497314 12.70741272 C12.65462968 12.28019761 10.41024891 12.1548993 7.99194336 12.11035156 C6.5509024 12.08043373 6.5509024 12.08043373 5.08074951 12.0499115 C3.53680511 12.02484276 3.53680511 12.02484276 1.96166992 11.99926758 C0.90191956 11.97848648 -0.15783081 11.95770538 -1.24969482 11.93629456 C-4.63229946 11.87095197 -8.01498119 11.81198502 -11.39770508 11.75317383 C-13.69198386 11.70997408 -15.98625487 11.66635932 -18.28051758 11.62231445 C-23.9028321 11.51528622 -29.52522318 11.41349144 -35.14770508 11.31567383 C-33.90524497 7.87501508 -32.6882755 4.98399274 -30.14770508 2.31567383 C-21.02701322 -1.10012069 -9.61973974 -0.02295069 0 0 Z " fill="#A90A22" transform="translate(156.147705078125,53.684326171875)"/>
<path d="M0 0 C0.86625 0.4640625 0.86625 0.4640625 1.75 0.9375 C3.92531569 2.06037668 3.92531569 2.06037668 6.125 2.5 C8 3 8 3 10 5 C10.825 5.763125 11.65 6.52625 12.5 7.3125 C14.8947734 9.88688141 15.95985375 11.69044374 17 15 C17.66 15 18.32 15 19 15 C20.40234375 16.9765625 20.40234375 16.9765625 21.9375 19.625 C22.47117187 20.53507812 23.00484375 21.44515625 23.5546875 22.3828125 C25 25 25 25 26.5625 28.5 C28.30761395 31.53498079 29.67884686 32.10239104 33 33 C33 33.66 33 34.32 33 35 C38.94 35.33 44.88 35.66 51 36 C51 36.66 51 37.32 51 38 C51.99 38.33 52.98 38.66 54 39 C54 39.66 54 40.32 54 41 C54.763125 41.2475 55.52625 41.495 56.3125 41.75 C59 43 59 43 60.40625 44.97265625 C63.31741597 48.67583061 67.52461829 49.16532758 72 50 C77.31740852 50.58300993 82.65644862 50.80773823 88 51 C88 51.66 88 52.32 88 53 C79.57342361 57.90528355 71.70737392 59.34513264 62 58 C59.20703125 56.515625 59.20703125 56.515625 57 55 C56.195625 54.7525 55.39125 54.505 54.5625 54.25 C50.79730348 52.41331877 48.35564934 49.43228632 46 46 C46 45.34 46 44.68 46 44 C44.13794922 44.05220703 44.13794922 44.05220703 42.23828125 44.10546875 C40.59636774 44.13361584 38.95443954 44.16091501 37.3125 44.1875 C36.08756836 44.22520508 36.08756836 44.22520508 34.83789062 44.26367188 C34.04189453 44.27333984 33.24589844 44.28300781 32.42578125 44.29296875 C31.33390503 44.31653442 31.33390503 44.31653442 30.2199707 44.34057617 C27.18966191 43.87568221 25.45461882 42.8345821 23 41 C21.18237305 38.49487305 21.18237305 38.49487305 19.51171875 35.51171875 C18.89111572 34.41851318 18.2705127 33.32530762 17.63110352 32.19897461 C16.98294092 31.02864627 16.33507795 29.85815194 15.6875 28.6875 C15.02060332 27.50268661 14.35255014 26.31852344 13.68334961 25.13500977 C12.37293887 22.81400411 11.06993247 20.48933872 9.77050781 18.16210938 C7.5704306 14.23279331 5.31960847 10.33420109 3.0625 6.4375 C0 1.12526539 0 1.12526539 0 0 Z " fill="#D94050" transform="translate(77,148)"/>
<path d="M0 0 C0.66 0 1.32 0 2 0 C2.22429687 1.14855469 2.44859375 2.29710938 2.6796875 3.48046875 C3.90816527 8.39762976 6.31600149 12.14621229 9.125 16.3125 C10.05028912 17.70043368 10.96984446 19.09221204 11.8828125 20.48828125 C12.28902832 21.09196533 12.69524414 21.69564941 13.11376953 22.31762695 C14 24 14 24 14 27 C14.66 27 15.32 27 16 27 C19.38331668 33.56954695 22.51455479 40.04075342 25 47 C25.63960014 48.3465266 26.289999 49.68922893 27 51 C20.96309047 49.88205379 17.05077171 46.43314544 13 42 C11.20734777 39.37279477 9.62938975 36.64147253 8.0625 33.875 C7.6308252 33.12089844 7.19915039 32.36679688 6.75439453 31.58984375 C5.89478809 30.08480891 5.03826062 28.57801066 4.18505859 27.06933594 C3.16079019 25.28077001 2.09394399 23.51671304 1.01953125 21.7578125 C-2.32065165 16.15646066 -4.35740488 11.57616537 -3 5 C-1.625 1.9375 -1.625 1.9375 0 0 Z " fill="#BE2237" transform="translate(62,103)"/>
<path d="M0 0 C2.25902285 1.37589114 2.25902285 1.37589114 4.92578125 2.265625 C8.31196957 3.7541843 8.931211 5.9475166 10.25390625 9.2890625 C10.25390625 9.9490625 10.25390625 10.6090625 10.25390625 11.2890625 C15.20390625 11.2890625 20.15390625 11.2890625 25.25390625 11.2890625 C25.25390625 11.6190625 25.25390625 11.9490625 25.25390625 12.2890625 C24.2896875 12.34964844 23.32546875 12.41023438 22.33203125 12.47265625 C21.06875 12.55644531 19.80546875 12.64023438 18.50390625 12.7265625 C17.2509375 12.80777344 15.99796875 12.88898438 14.70703125 12.97265625 C10.88977327 13.27009483 10.88977327 13.27009483 7.25390625 14.2890625 C6.59390625 15.2790625 5.93390625 16.2690625 5.25390625 17.2890625 C3.25390625 15.9140625 3.25390625 15.9140625 1.25390625 14.2890625 C1.25390625 13.6290625 1.25390625 12.9690625 1.25390625 12.2890625 C0.53203125 12.0209375 -0.18984375 11.7528125 -0.93359375 11.4765625 C-3.74609375 10.2890625 -3.74609375 10.2890625 -6.30859375 8.7265625 C-8.52755853 7.41794225 -10.23684532 6.75373814 -12.74609375 6.2890625 C-12.74609375 5.6290625 -12.74609375 4.9690625 -12.74609375 4.2890625 C-22.48148067 4.5696212 -30.06023229 5.94613177 -38.74609375 10.2890625 C-36.62038089 5.2646503 -34.09416983 1.45062973 -29.171875 -0.984375 C-18.83928093 -4.79325281 -9.7157135 -5.62229106 0 0 Z " fill="#78797D" transform="translate(153.74609375,88.7109375)"/>
<path d="M0 0 C2.71403375 1.92553552 4.44063092 4.069757 6 7 C6.61526389 10.96503397 6.36504652 13.13541613 4.8125 16.8125 C2.21892378 19.94267819 0.04326479 20.69330305 -3.92578125 21.2890625 C-8.1151289 21.58886516 -9.54870306 21.36487838 -12.9375 18.625 C-16.1398393 14.54929544 -16.52171797 12.21717968 -16 7 C-12.46092184 0.8510225 -6.99882797 -1.59483651 0 0 Z " fill="#EEF1FD" transform="translate(145,103)"/>
<path d="M0 0 C3.62779935 0.90839633 5.31504251 2.60818966 7.44921875 5.609375 C9.0649693 8.84718763 9.10245678 11.08579587 8.44921875 14.61328125 C6.57421875 17.55078125 6.57421875 17.55078125 4.44921875 19.61328125 C3.78921875 19.61328125 3.12921875 19.61328125 2.44921875 19.61328125 C2.44921875 20.27328125 2.44921875 20.93328125 2.44921875 21.61328125 C-5.54729693 22.24045895 -5.54729693 22.24045895 -9.55078125 19.73828125 C-13.02450224 16.0474527 -12.96431437 13.01964664 -12.87890625 8.1015625 C-12.55078125 5.61328125 -12.55078125 5.61328125 -10.67578125 2.48828125 C-6.90952284 0.2285262 -4.35067077 -0.22761357 0 0 Z " fill="#FCEDEE" transform="translate(149.55078125,166.38671875)"/>
<path d="M0 0 C0.86625 0.4640625 0.86625 0.4640625 1.75 0.9375 C3.92531569 2.06037668 3.92531569 2.06037668 6.125 2.5 C8 3 8 3 10 5 C10.825 5.763125 11.65 6.52625 12.5 7.3125 C14.8947734 9.88688141 15.95985375 11.69044374 17 15 C17.66 15 18.32 15 19 15 C20.40234375 16.9765625 20.40234375 16.9765625 21.9375 19.625 C22.46859375 20.53507812 22.9996875 21.44515625 23.546875 22.3828125 C24.65950931 24.38675063 25.69204277 26.43534796 26.6875 28.5 C27.88776903 31.271017 27.88776903 31.271017 31 33 C30.67 33.66 30.34 34.32 30 35 C27.625 35.1875 27.625 35.1875 25 35 C24.34 34.01 23.68 33.02 23 32 C22.04182373 31.88358154 21.08364746 31.76716309 20.09643555 31.6472168 C17 31 17 31 15.08129883 28.68676758 C14.54529053 27.68282959 14.00928223 26.6788916 13.45703125 25.64453125 C12.55887695 23.99807617 12.55887695 23.99807617 11.64257812 22.31835938 C11.03865234 21.16142578 10.43472656 20.00449219 9.8125 18.8125 C9.19697266 17.67490234 8.58144531 16.53730469 7.94726562 15.36523438 C5.2103177 10.28571997 2.56710803 5.16739277 0 0 Z " fill="#D93D4D" transform="translate(77,148)"/>
<path d="M0 0 C1.92056824 0.01005194 3.84114158 0.01917386 5.76171875 0.02734375 C10.42460722 0.04917712 15.08724603 0.08358445 19.75 0.125 C19.75 0.455 19.75 0.785 19.75 1.125 C7.54 1.455 -4.67 1.785 -17.25 2.125 C-16.92 3.115 -16.59 4.105 -16.25 5.125 C-15.59 4.795 -14.93 4.465 -14.25 4.125 C-14.25 5.115 -14.25 6.105 -14.25 7.125 C-13.59 7.125 -12.93 7.125 -12.25 7.125 C-12.25 7.785 -12.25 8.445 -12.25 9.125 C-11.26 9.455 -10.27 9.785 -9.25 10.125 C-12.59386398 11.13585428 -15.6248118 11.24043463 -19.109375 11.22265625 C-20.22441406 11.21943359 -21.33945313 11.21621094 -22.48828125 11.21289062 C-23.64714844 11.20451172 -24.80601562 11.19613281 -26 11.1875 C-27.17433594 11.18298828 -28.34867188 11.17847656 -29.55859375 11.17382812 C-32.45578072 11.16205094 -35.35286454 11.14560326 -38.25 11.125 C-37.00747429 7.68415958 -35.7890763 4.79479663 -33.25 2.125 C-23.26333587 -1.66436176 -10.52248323 -0.09630316 0 0 Z " fill="#B9172D" transform="translate(159.25,53.875)"/>
<path d="M0 0 C1.05692047 0.02644089 2.11384094 0.05288177 3.20278931 0.0801239 C6.56547238 0.16761751 9.92704304 0.27686297 13.2890625 0.38671875 C15.57417939 0.45000538 17.85933611 0.51187048 20.14453125 0.57226562 C25.73494153 0.72311501 31.32459778 0.89180896 36.9140625 1.07421875 C36.9140625 1.40421875 36.9140625 1.73421875 36.9140625 2.07421875 C35.14530762 2.11180298 35.14530762 2.11180298 33.34082031 2.15014648 C28.91251102 2.24522781 24.48432241 2.34519087 20.05615234 2.4465332 C18.1496058 2.48950534 16.24303002 2.53120182 14.33642578 2.5715332 C8.1941704 2.70197963 2.05425151 2.86854722 -4.0859375 3.07421875 C-6.0340332 3.13246826 -6.0340332 3.13246826 -8.02148438 3.19189453 C-9.63893555 3.27479736 -9.63893555 3.27479736 -11.2890625 3.359375 C-12.63726074 3.42137085 -12.63726074 3.42137085 -14.01269531 3.48461914 C-16.23148311 3.87783492 -16.23148311 3.87783492 -17.32324219 5.86889648 C-18.03396784 7.92394925 -18.57311291 9.96301242 -19.0859375 12.07421875 C-18.52074905 12.0823056 -17.95556061 12.09039246 -17.37324524 12.09872437 C-11.4843619 12.18486185 -5.5958116 12.28436947 0.29272461 12.39160156 C2.48960776 12.42985615 4.6865528 12.46471515 6.88354492 12.49609375 C10.04368182 12.54182035 13.203394 12.59980293 16.36328125 12.66015625 C17.34366867 12.67170746 18.32405609 12.68325867 19.33415222 12.69515991 C27.76262609 12.8770797 27.76262609 12.8770797 31.9140625 15.07421875 C29.36350576 16.34949712 28.61452466 15.78426806 25.9140625 15.07421875 C24.34233439 14.98532254 22.76735455 14.94635717 21.19311523 14.94482422 C20.26212509 14.94167206 19.33113495 14.9385199 18.37193298 14.93527222 C17.37392166 14.93729645 16.37591034 14.93932068 15.34765625 14.94140625 C14.31721695 14.94044952 13.28677765 14.9394928 12.22511292 14.93850708 C10.04891906 14.93782713 7.87272316 14.93966855 5.6965332 14.94384766 C2.36079369 14.94920393 -0.97481152 14.9438936 -4.31054688 14.9375 C-6.42447946 14.93816071 -8.53841197 14.93944172 -10.65234375 14.94140625 C-12.15239708 14.9383699 -12.15239708 14.9383699 -13.68275452 14.93527222 C-15.07451149 14.94000046 -15.07451149 14.94000046 -16.49438477 14.94482422 C-17.71871971 14.94601761 -17.71871971 14.94601761 -18.9677887 14.94723511 C-21.27652918 14.99392203 -21.27652918 14.99392203 -24.0859375 16.07421875 C-23.7559375 14.42421875 -23.4259375 12.77421875 -23.0859375 11.07421875 C-22.4259375 11.07421875 -21.7659375 11.07421875 -21.0859375 11.07421875 C-20.9828125 10.49671875 -20.8796875 9.91921875 -20.7734375 9.32421875 C-19.62142067 5.55398184 -17.93706306 3.64263738 -14.66552734 1.45776367 C-9.68290203 -0.46806757 -5.28557603 -0.1937799 0 0 Z " fill="#D03744" transform="translate(142.0859375,51.92578125)"/>
<path d="M0 0 C0.66 0 1.32 0 2 0 C2.226875 1.155 2.45375 2.31 2.6875 3.5 C3.69660065 7.68479977 5.54492678 10.69223821 8.07421875 14.140625 C9 16 9 16 8.64453125 18.234375 C8.43183594 18.81703125 8.21914062 19.3996875 8 20 C4.125 18.25 4.125 18.25 3 16 C2.01 16 1.02 16 0 16 C0.33 15.34 0.66 14.68 1 14 C0.34 14 -0.32 14 -1 14 C-1.22226864 12.23086176 -1.42733873 10.45955629 -1.625 8.6875 C-1.74101563 7.70136719 -1.85703125 6.71523437 -1.9765625 5.69921875 C-2 3 -2 3 0 0 Z " fill="#B21027" transform="translate(62,103)"/>
<path d="M0 0 C1.65 0 3.3 0 5 0 C5.66 1.32 6.32 2.64 7 4 C8.32 4 9.64 4 11 4 C11 4.66 11 5.32 11 6 C10.34 6.66 9.68 7.32 9 8 C9.66 8.33 10.32 8.66 11 9 C11 9.99 11 10.98 11 12 C16.28 12 21.56 12 27 12 C27 12.33 27 12.66 27 13 C24.27022936 13.08126109 21.5428983 13.14061663 18.8125 13.1875 C18.04357422 13.21263672 17.27464844 13.23777344 16.48242188 13.26367188 C11.81427214 13.32377681 8.75644446 13.07973204 5 10 C3.41796875 8.02734375 3.41796875 8.02734375 2.1875 5.9375 C1.76855469 5.24527344 1.34960938 4.55304688 0.91796875 3.83984375 C0 2 0 2 0 0 Z " fill="#E86772" transform="translate(95,179)"/>
<path d="M0 0 C0.86625 0.4640625 0.86625 0.4640625 1.75 0.9375 C3.92531569 2.06037668 3.92531569 2.06037668 6.125 2.5 C8 3 8 3 10 5 C10.66 5.33 11.32 5.66 12 6 C10.6975667 8.90542812 9.29113732 10.8092961 7 13 C5.83072457 11.02237345 4.66464427 9.04285742 3.5 7.0625 C2.8503125 5.96035156 2.200625 4.85820312 1.53125 3.72265625 C0 1 0 1 0 0 Z " fill="#CE3647" transform="translate(77,148)"/>
<path d="M0 0 C1.13376498 3.41631171 1.01749065 3.95665361 -0.4375 7.5625 C-2.94225078 12.2456784 -6.11038853 16.44018361 -9.29296875 20.6796875 C-11.00614147 22.87077846 -11.00614147 22.87077846 -12 25 C-12.66 24.67 -13.32 24.34 -14 24 C-10.96418604 18.65895347 -7.87001618 13.35473675 -4.75 8.0625 C-4.29109375 7.28326172 -3.8321875 6.50402344 -3.359375 5.70117188 C-2.23998639 3.8005433 -1.12018739 1.90015786 0 0 Z " fill="#909FE8" transform="translate(192,182)"/>
<path d="M0 0 C-1.32 0.33 -2.64 0.66 -4 1 C-4 1.99 -4 2.98 -4 4 C-3.34 3.67 -2.68 3.34 -2 3 C-0.12620395 2.92966231 1.75001102 2.9156978 3.625 2.9375 C5.12933594 2.95103516 5.12933594 2.95103516 6.6640625 2.96484375 C7.43492187 2.97644531 8.20578125 2.98804687 9 3 C9 3.33 9 3.66 9 4 C7.58847656 4.16435547 7.58847656 4.16435547 6.1484375 4.33203125 C4.90320313 4.49058594 3.65796875 4.64914063 2.375 4.8125 C0.53035156 5.03873047 0.53035156 5.03873047 -1.3515625 5.26953125 C-5.0373236 6.00747271 -7.73414827 7.17552858 -11 9 C-11.99 9.495 -11.99 9.495 -13 10 C-11.13514314 5.59215652 -8.31445364 0.9919087 -3.8125 -0.9375 C-2 -1 -2 -1 0 0 Z " fill="#878EAF" transform="translate(128,89)"/>
<path d="M0 0 C0.66 0 1.32 0 2 0 C2.061875 0.598125 2.12375 1.19625 2.1875 1.8125 C2.85460775 4.15803969 2.85460775 4.15803969 5 5.6875 C8.95768817 7.41898857 12.72026085 7.72960254 17 8 C17 8.33 17 8.66 17 9 C14.37438891 9.08074203 11.75124324 9.1403623 9.125 9.1875 C8.00544922 9.22520508 8.00544922 9.22520508 6.86328125 9.26367188 C4.6953125 9.29296875 4.6953125 9.29296875 1 9 C-1 6 -1 6 -1 3 C-0.34 3 0.32 3 1 3 C0.67 2.01 0.34 1.02 0 0 Z " fill="#E34F5C" transform="translate(105,182)"/>
<path d="M0 0 C1.65 0.33 3.3 0.66 5 1 C5 1.99 5 2.98 5 4 C5.66 4.33 6.32 4.66 7 5 C6.67 5.33 6.34 5.66 6 6 C8.97 6.495 8.97 6.495 12 7 C12 7.33 12 7.66 12 8 C3.96498906 8.78774617 3.96498906 8.78774617 -0.0625 5.5 C-0.701875 4.675 -1.34125 3.85 -2 3 C-1.34 2.67 -0.68 2.34 0 2 C0 1.34 0 0.68 0 0 Z " fill="#B72238" transform="translate(194,94)"/>
<path d="M0 0 C3.2578125 0.2421875 3.2578125 0.2421875 7.125 0.875 C8.40632812 1.07867187 9.68765625 1.28234375 11.0078125 1.4921875 C11.99523437 1.65976563 12.98265625 1.82734375 14 2 C14 2.33 14 2.66 14 3 C12.77023438 3.19916016 12.77023438 3.19916016 11.515625 3.40234375 C9.89914063 3.66724609 9.89914063 3.66724609 8.25 3.9375 C6.64898437 4.19853516 6.64898437 4.19853516 5.015625 4.46484375 C2.63652407 4.88704171 0.33084789 5.37202884 -2 6 C-2 2 -2 2 0 0 Z " fill="#E5363C" transform="translate(138,186)"/>
<path d="M0 0 C0.66 0.33 1.32 0.66 2 1 C1.5205537 5.21912747 0.83374881 7.79663178 -2 11 C-3.32 10.67 -4.64 10.34 -6 10 C-4.02 6.7 -2.04 3.4 0 0 Z " fill="#E2373D" transform="translate(68,92)"/>
<path d="M0 0 C0 0.66 0 1.32 0 2 C-7.76297789 6.71248522 -15.20148083 6.41732107 -24 6 C-24 5.67 -24 5.34 -24 5 C-22.62328125 4.96132812 -22.62328125 4.96132812 -21.21875 4.921875 C-13.91023087 4.5840863 -6.36330883 0 0 0 Z " fill="#9BABFB" transform="translate(158,136)"/>
<path d="M0 0 C3.63 0 7.26 0 11 0 C11 0.66 11 1.32 11 2 C7.56490728 4.08559201 7.56490728 4.08559201 4.9375 3.6875 C4.298125 3.460625 3.65875 3.23375 3 3 C2.01 2.67 1.02 2.34 0 2 C0 1.34 0 0.68 0 0 Z " fill="#C93346" transform="translate(154,199)"/>
<path d="M0 0 C-0.33 0.99 -0.66 1.98 -1 3 C-6.94 3 -12.88 3 -19 3 C-19 2.67 -19 2.34 -19 2 C-18.15695313 1.93941406 -17.31390625 1.87882813 -16.4453125 1.81640625 C-15.34960938 1.73261719 -14.25390625 1.64882812 -13.125 1.5625 C-12.03445312 1.48128906 -10.94390625 1.40007812 -9.8203125 1.31640625 C-6.26459339 0.91749593 -3.69350534 -0.09719751 0 0 Z " fill="#D12A39" transform="translate(168,196)"/>
<path d="M0 0 C0.66 0.33 1.32 0.66 2 1 C0.51960127 3.96079745 -0.4391659 5.69006536 -3.375 7.3125 C-6.04018683 8.01052512 -8.25824486 8.15667172 -11 8 C-11 7.34 -11 6.68 -11 6 C-9.9275 5.7525 -8.855 5.505 -7.75 5.25 C-4.00350563 4.00116854 -2.47926118 2.97511342 0 0 Z " fill="#F19CA0" transform="translate(131,152)"/>
<path d="M0 0 C0.33 1.32 0.66 2.64 1 4 C0.01 4.33 -0.98 4.66 -2 5 C-1.938125 5.763125 -1.87625 6.52625 -1.8125 7.3125 C-2 10 -2 10 -3.5 11.8125 C-3.995 12.204375 -4.49 12.59625 -5 13 C-5.66 12.67 -6.32 12.34 -7 12 C-6.566875 11.484375 -6.13375 10.96875 -5.6875 10.4375 C-3.60062999 7.42313221 -2.40524483 4.38536255 -1 1 C-0.67 0.67 -0.34 0.34 0 0 Z " fill="#798EF1" transform="translate(176,211)"/>
<path d="M0 0 C1.5 1.3125 1.5 1.3125 3 3 C3 3.99 3 4.98 3 6 C3.66 6 4.32 6 5 6 C6.4606285 8.64738916 7 9.89448334 7 13 C6.34 13 5.68 13 5 13 C4.67 11.35 4.34 9.7 4 8 C3.34 8 2.68 8 2 8 C1.34 5.36 0.68 2.72 0 0 Z " fill="#CD1F2D" transform="translate(73,124)"/>
<path d="M0 0 C1.32 0.66 2.64 1.32 4 2 C3.34 3.98 2.68 5.96 2 8 C0.23537317 4.91190305 0 3.76687864 0 0 Z " fill="#E5363B" transform="translate(191,39)"/>
<path d="M0 0 C1 2 1 2 0.25 4.3125 C-1.01118343 7.02404437 -2.30790527 9.53236186 -4 12 C-4.66 12 -5.32 12 -6 12 C-4.43358249 7.69235185 -2.31663844 3.93828536 0 0 Z " fill="#E55259" transform="translate(88,57)"/>
<path d="M0 0 C0.99 0.66 1.98 1.32 3 2 C-5.42857143 3.28571429 -5.42857143 3.28571429 -10 2 C-6.31282562 -0.45811625 -4.35654296 -0.31118164 0 0 Z " fill="#DB2E39" transform="translate(125,182)"/>
<path d="M0 0 C0.66 0 1.32 0 2 0 C3.0625 1.875 3.0625 1.875 4 4 C3.67 4.66 3.34 5.32 3 6 C2.01 6 1.02 6 0 6 C-0.66 4.68 -1.32 3.36 -2 2 C-1.34 1.34 -0.68 0.68 0 0 Z " fill="#B2132A" transform="translate(191,90)"/>
<path d="M0 0 C0.6875 1.6875 0.6875 1.6875 1 4 C-0.3125 6.75 -0.3125 6.75 -2 9 C-2.66 9 -3.32 9 -4 9 C-2.94124926 5.59687262 -1.99097846 2.98646769 0 0 Z " fill="#9FAFFB" transform="translate(192,182)"/>
<path d="M0 0 C4.7517398 0.43197635 6.92000054 1.32769295 10 5 C6.08788267 3.84414715 3.1254959 2.64465038 0 0 Z " fill="#F3AEB1" transform="translate(154,149)"/>
<path d="M0 0 C0.66 0.33 1.32 0.66 2 1 C0.625 3 0.625 3 -1 5 C-1.66 5 -2.32 5 -3 5 C-3 5.66 -3 6.32 -3 7 C-3.66 7 -4.32 7 -5 7 C-4.60196439 4.11424181 -4.20990931 3.17810487 -1.9375 1.25 C-1.298125 0.8375 -0.65875 0.425 0 0 Z " fill="#7B90F6" transform="translate(118,96)"/>
<path d="M0 0 C0.66 0 1.32 0 2 0 C2 1.65 2 3.3 2 5 C0.02 5.99 0.02 5.99 -2 7 C-1.34 4.69 -0.68 2.38 0 0 Z " fill="#F7CFD1" transform="translate(102,93)"/>
<path d="M0 0 C0.8125 1.6875 0.8125 1.6875 1 4 C-1.4375 6.75 -1.4375 6.75 -4 9 C-2.94124926 5.59687262 -1.99097846 2.98646769 0 0 Z " fill="#E44A52" transform="translate(81,69)"/>
</svg>
